<svg data-name="Layer 2" id="Layer_2" viewBox="0 0 100 100" xmlns="http://www.w3.org/2000/svg">
  <defs>
    <style>.cls-1 {
      fill: #fff;
    }

    .cls-1, .cls-2 {
      stroke: #000;
      stroke-linecap: round;
      stroke-linejoin: round;
      stroke-width: 2px;
    }

    .cls-2 {
      fill: none;
    }</style>
  </defs>
  <title>Artboard 20</title>
  <path class="cls-1"
        d="M54.17,52.22c3.19-.6,7.29-2.29,8.69-.7S81.54,72.1,82.34,74.4s-1,20.28-1.4,21.78-1.3,11.89-.2,15.08"/>
  <path class="cls-1" d="M53,63.31c2.59.7,4.89.9,5.49,0s2.7-3.4,2.7-3.4"/>
  <path class="cls-1" d="M57.06,63.31c.4,2.1,3.3,5.5,4.6,6.6s4.69,0,4.69,0l3.4-2.3"/>
  <line class="cls-1" x1="55.62" x2="62.46" y1="75.58" y2="70.28"/>
  <path class="cls-1" d="M60.52,68.38A43.86,43.86,0,0,1,53,65.81"/>
  <path class="cls-1" d="M59.67,80.18A17.56,17.56,0,0,1,65,76.25a18.79,18.79,0,0,1,6.48-1.15"/>
  <path class="cls-1" d="M37.38,73c-.6,2.1-1.1,5.62.2,8.06.58,1.08,2.72,2,4.94,1.27a18.61,18.61,0,0,0,5.75-3.63"/>
  <path class="cls-2"
        d="M36.78,76.8a21.66,21.66,0,0,0-3.31,9.11c-.09,2.25,1,5.3,4.16,5.27,3.5,0,5.69-6.37,5.69-6.37l5.51-1.09"/>
  <path class="cls-2" d="M34.88,90.19c-.55,2.4.4,5,2.32,5.93,2.68,1.26,5-2.34,5.32-4.24a39,39,0,0,1,1.56-6"/>
  <path class="cls-1" d="M44.86,84.51a48.6,48.6,0,0,0,4.47,4.93"/>
  <path class="cls-1" d="M50.67,100.66c-1.3,2.71-1.3,4.71-1.2,8.2s6.19,7.3,7.14,8.2,3.06,2.79,3.06,2.79"/>
  <rect class="cls-1" height="57.99" rx="6.07" ry="6.07" transform="matrix(0.98, -0.19, 0.19, 0.98, -7.17, 9.08)" width="39.37" x="24.24"
        y="13.06"/>
  <path class="cls-1"
        d="M58.26,111.26s-6.39-8-7.19-9.49-2-8.69-1.7-13.58-1.3-6.3-3.1-9.49a92.54,92.54,0,0,1-5.13-10.32,6.66,6.66,0,0,1,1.38-7.44c1.95-1.61,5.58-2,7.48,1S54.33,71.5,55.13,73s4.13,7.29,5.73,8.09,7.29,1.7,7.89,2.1"/>
  <line class="cls-1" x1="43.32" x2="42.52" y1="84.81" y2="82.88"/>
</svg>
