Bug détectés :
signature = en 2 fois
classement = ne se calcule pas après le match / (à réesssayer)
classement = ne s'affiche pas correctement
signature à la main => meme problème
my_competition _get : ajouter tournamenet
competition_get_all_name.php : ajouter tournamenet (écran Match / Ecran MyCompetition)
competition_get_all.php : ajouter tournamenet
<svg width="177" height="170" viewBox="0 0 177 170" fill="none" xmlns="http://www.w3.org/2000/svg">
<ellipse cx="88.5" cy="85" rx="88.5" ry="85" fill="#0DA0DF"/>
<path d="M76.8333 117.5H47.6667C44.5725 117.5 41.605 116.104 39.4171 113.619C37.2292 111.134 36 107.764 36 104.25V51.25C36 47.7359 37.2292 44.3657 39.4171 41.8808C41.605 39.396 44.5725 38 47.6667 38H129.333C132.428 38 135.395 39.396 137.583 41.8808C139.771 44.3657 141 47.7359 141 51.25V104.25C141 107.764 139.771 111.134 137.583 113.619C135.395 116.104 132.428 117.5 129.333 117.5H100.167M76.8333 117.5V144M76.8333 117.5H100.167M76.8333 144H65.1667M76.8333 144H100.167M111.833 144H100.167M100.167 117.5V144" stroke="#DEAF66" stroke-width="10.8111" stroke-linecap="round" stroke-linejoin="round"/>
<path d="M103.747 57C99.1116 58.1217 93.8546 58.7153 88.5 58.7217C83.1455 58.7188 77.8865 58.1286 73.2473 57.01C73.315 58.7767 73.4835 60.4577 73.666 62.125H73.1875C73.1875 59.5625 70.125 59.5625 70.125 59.5625H67.0625H64V64.6875H64.0239C64.0222 64.774 64 64.8559 64 64.9427C64 74.4559 71.675 82.3932 82.1417 84.727C83.1859 85.7642 84.2861 86.5676 85.4375 87.0743V92.875H82.375V95.4375H79.3125V98H97.6875V95.4375H94.625V92.875H91.5625V87.0743C92.7124 86.5673 93.8095 85.7631 94.8523 84.727C105.322 82.3948 113 74.4575 113 64.9427C113 64.8559 112.978 64.774 112.976 64.6875H113V59.5625H109.938H106.875H106.827C106.827 59.5625 104.664 59.5756 103.812 62.0149V62.125H103.765H103.328C103.511 60.4547 103.679 58.77 103.747 57V57ZM67.3496 62.125H70.125C70.9456 64.6875 73.1875 64.6875 73.1875 64.6875H73.995C74.9908 71.3911 76.866 77.1147 79.3544 81.1586C72.0836 78.2948 67.0625 72.1357 67.0625 64.9427C67.0625 63.9807 67.177 63.0452 67.3496 62.125V62.125ZM88.5 62.125L90.3961 65.4983L94.625 66.0388L91.5625 68.6664L92.2863 72.375L88.5 70.6233L84.7137 72.375L85.4375 68.6664L82.375 66.0388L86.6039 65.4983L88.5 62.125ZM106.875 62.125H109.65C109.823 63.0452 109.938 63.9807 109.938 64.9427C109.938 72.1413 104.908 78.3028 97.6277 81.1636C100.119 77.1189 102.002 71.3962 102.999 64.6875H103.812C103.812 64.6875 106.875 64.6875 106.875 62.125V62.125Z" fill="#DEAF66"/>
</svg>
