<?xml version="1.0" standalone="no"?>
<!DOCTYPE svg PUBLIC "-//W3C//DTD SVG 20010904//EN"
  "http://www.w3.org/TR/2001/REC-SVG-20010904/DTD/svg10.dtd">
<svg height="395.000000pt" preserveAspectRatio="xMidYMid meet"
     version="1.0" viewBox="0 0 395.000000 395.000000" width="395.000000pt"
     xmlns="http://www.w3.org/2000/svg">
  <metadata>
    Created by potrace 1.14, written by Peter Selinger 2001-2017
  </metadata>
  <g fill="#000000"
     stroke="none" transform="translate(0.000000,395.000000) scale(0.100000,-0.100000)">
    <path d="M1969 3897 c-16 -12 -15 -42 2 -31 11 6 11 2 3 -20 -3 -9 -13 -16
-21 -16 -8 0 -12 -4 -8 -9 9 -15 -25 -41 -53 -41 -48 0 -94 -8 -105 -19 -6 -6
-21 -11 -34 -11 -13 0 -23 -4 -23 -10 0 -16 -80 -61 -93 -53 -22 14 -48 13
-53 -1 -3 -8 -13 -12 -24 -9 -10 3 -27 -4 -37 -14 -11 -11 -24 -18 -31 -15
-16 5 -52 -17 -49 -30 1 -6 -11 -18 -26 -26 -20 -10 -27 -20 -25 -36 1 -13 -5
-31 -15 -41 -17 -17 -19 -67 -4 -92 3 -5 -2 -23 -11 -39 -22 -36 -18 -58 13
-72 22 -10 31 -33 26 -64 0 -5 3 -8 9 -8 5 0 7 -7 4 -15 -3 -8 -2 -20 2 -27 5
-7 9 -20 9 -28 0 -17 32 -20 90 -7 22 4 60 10 85 13 25 2 59 6 75 9 219 35
682 15 874 -36 10 -3 19 16 31 68 10 40 15 75 12 78 -3 2 7 9 21 14 32 12 44
46 23 67 -11 11 -14 26 -10 52 8 54 6 74 -7 83 -7 4 -13 15 -14 26 -2 26 -24
63 -35 60 -6 -1 -16 9 -23 22 -6 13 -22 26 -35 28 -12 1 -33 10 -46 18 -13 9
-28 15 -32 14 -5 -2 -21 4 -36 11 -25 12 -30 11 -48 -5 -18 -16 -20 -16 -20
-2 0 10 -7 17 -15 17 -8 0 -25 10 -37 22 -12 12 -29 22 -39 23 -10 1 -24 7
-33 14 -9 7 -25 11 -36 8 -11 -3 -20 -1 -20 5 0 5 -4 6 -10 3 -5 -3 -10 -2
-10 2 0 5 -16 8 -35 7 -27 -2 -36 3 -41 20 -4 11 -15 27 -26 34 -18 13 -18 15
-2 26 15 12 15 13 -1 29 -19 20 -34 21 -56 4z m-4 -184 c-2 -10 -4 -18 -5 -18
-7 0 -6 -93 2 -102 7 -9 6 -14 -4 -18 -16 -6 -13 -50 5 -72 6 -9 6 -13 -1 -13
-5 0 -13 -11 -16 -25 -4 -14 -13 -25 -20 -25 -13 0 -28 -22 -30 -45 -2 -14 30
-36 54 -38 19 -1 30 -36 13 -38 -5 0 -39 -2 -78 -4 -38 -2 -89 -6 -112 -9 -26
-3 -46 0 -52 8 -10 12 0 38 15 37 28 -2 44 12 44 39 0 23 -6 31 -25 36 -25 6
-42 43 -44 94 0 14 -3 41 -7 62 -5 31 -3 37 15 43 11 3 20 10 18 15 -3 10 69
60 88 60 8 0 17 5 20 10 4 6 15 8 25 5 10 -3 21 -1 25 5 3 5 21 10 40 10 26 0
33 -4 30 -17z m155 4 c8 -1 25 -8 38 -15 12 -7 22 -10 22 -7 0 4 12 -3 26 -14
15 -11 30 -18 35 -15 5 3 9 -2 9 -10 0 -8 9 -21 20 -29 21 -15 38 -67 21 -67
-15 0 -21 -29 -11 -55 7 -18 5 -28 -5 -38 -8 -8 -12 -17 -9 -20 3 -3 -8 -13
-25 -21 -20 -11 -30 -23 -28 -35 4 -27 26 -51 41 -45 18 7 30 -27 14 -37 -7
-5 -29 -6 -48 -2 -19 3 -71 6 -115 7 -75 2 -80 3 -81 24 -1 17 4 22 25 22 14
0 31 4 37 8 19 13 8 53 -22 77 -16 14 -24 25 -19 25 6 0 4 4 -4 9 -11 7 -11
15 0 44 9 25 9 40 2 49 -6 7 -7 22 -3 33 4 11 4 27 0 35 -5 8 -8 32 -8 53 0
41 -4 39 88 24z m-512 -123 c2 -10 4 -34 4 -53 0 -18 6 -40 14 -48 9 -10 11
-20 5 -31 -4 -9 -6 -23 -4 -29 3 -7 -1 -13 -9 -13 -7 0 -21 -8 -29 -18 -19
-22 -5 -61 23 -63 10 -1 24 -2 31 -3 6 0 13 -10 15 -22 3 -19 -3 -22 -60 -28
-92 -9 -128 -15 -138 -21 -9 -5 -44 24 -37 32 2 2 14 5 26 8 32 6 40 13 39 38
-2 29 -16 47 -38 47 -25 0 -31 24 -14 49 9 12 16 35 16 51 1 17 4 30 8 30 4 0
12 11 18 25 6 14 16 25 22 25 7 0 18 7 26 15 8 8 21 12 29 9 8 -4 18 1 21 10
8 21 26 16 32 -10z m804 14 c2 -6 13 -12 24 -13 21 -2 86 -39 85 -49 -3 -20 0
-26 12 -26 9 0 12 -10 9 -32 -3 -22 0 -35 13 -44 21 -16 16 -46 -9 -50 -40 -6
-55 -53 -25 -80 10 -9 19 -14 19 -9 0 4 7 2 15 -5 12 -10 13 -16 4 -26 -6 -8
-14 -12 -18 -10 -6 4 -68 15 -126 21 -16 2 -39 6 -50 9 -11 2 -26 5 -33 5 -9
1 -10 6 -2 20 5 11 18 18 27 16 49 -7 75 44 38 73 -29 23 -40 71 -21 97 10 14
11 23 3 37 -9 13 -8 21 1 30 6 6 12 20 12 30 0 20 16 25 22 6z"/>
    <path d="M1225 3406 c-69 -37 -108 -59 -115 -66 -3 -3 -25 -19 -49 -35 -59
-39 -171 -148 -211 -205 -63 -89 -84 -174 -57 -229 9 -18 13 -44 10 -63 -3
-18 -6 -39 -7 -46 -1 -7 -19 -31 -40 -54 -46 -50 -59 -107 -31 -138 10 -11 23
-20 30 -20 6 0 22 -11 34 -24 l22 -23 -58 -49 c-31 -27 -67 -60 -79 -74 -12
-14 -35 -41 -52 -60 -17 -19 -28 -38 -26 -42 3 -4 1 -8 -4 -8 -9 0 -37 -50
-34 -62 1 -5 -3 -8 -10 -8 -6 0 -8 -3 -5 -7 4 -3 2 -12 -4 -19 -6 -8 -11 -34
-12 -60 -1 -50 12 -64 68 -75 22 -4 39 1 65 20 45 33 69 62 70 84 0 9 4 17 8
17 9 0 68 130 65 142 -2 4 2 8 7 8 6 0 10 8 10 18 0 10 3 22 8 26 4 4 7 12 7
17 0 5 3 9 8 9 4 0 11 0 15 0 4 0 9 -12 10 -27 1 -15 5 -29 10 -32 4 -3 8 -12
10 -19 1 -7 4 -20 6 -30 1 -9 6 -24 9 -32 6 -15 17 -75 23 -120 1 -14 3 -25 4
-25 1 0 3 -23 5 -52 2 -29 6 -57 10 -62 3 -6 2 -11 -3 -11 -5 0 -6 -17 -2 -40
4 -22 5 -40 1 -40 -3 0 -6 -21 -7 -48 -1 -66 -25 -237 -34 -249 -2 -2 -4 -7
-5 -13 -1 -5 -3 -11 -5 -12 -1 -2 -3 -11 -5 -20 -4 -23 -25 -89 -35 -113 -4
-11 -11 -28 -14 -37 -11 -35 -33 -14 -27 25 0 4 -4 7 -10 7 -6 0 -9 7 -5 15 3
8 1 15 -5 15 -6 0 -7 5 -4 10 3 6 1 10 -4 10 -6 0 -10 3 -10 8 3 19 -2 23 -16
12 -8 -7 -13 -16 -10 -20 3 -5 1 -20 -5 -35 -6 -15 -13 -46 -16 -68 -10 -74
-11 -252 -2 -263 5 -7 8 -16 7 -20 -4 -16 22 -98 42 -132 24 -42 24 -42 -6
-29 -14 7 -25 15 -25 20 0 4 -5 7 -10 7 -6 0 -20 9 -32 20 -12 11 -28 20 -35
20 -7 0 -13 4 -13 8 0 4 -12 15 -28 24 -15 9 -40 28 -57 42 -46 40 -58 33 -31
-19 14 -25 22 -45 19 -45 -4 0 2 -9 12 -20 10 -11 15 -20 11 -20 -6 0 53 -92
93 -144 41 -54 162 -164 207 -188 28 -15 71 -30 97 -33 58 -7 101 24 99 73 0
23 3 29 14 25 8 -3 14 -13 14 -23 0 -10 7 -23 15 -30 8 -7 15 -17 15 -22 0
-10 2 -13 55 -73 19 -22 35 -43 35 -47 0 -5 7 -8 15 -8 8 0 15 -4 15 -9 0 -12
68 -43 102 -47 32 -4 72 39 65 68 -3 10 -1 18 3 18 5 0 -3 23 -17 50 -22 42
-174 207 -248 269 -25 20 -14 22 40 5 66 -20 82 -24 135 -30 31 -4 55 -15 80
-38 109 -98 344 -230 450 -251 8 -2 34 -8 58 -14 43 -12 103 -8 151 10 14 6
27 10 29 9 5 -3 109 39 172 69 65 31 102 52 176 103 34 23 53 38 113 90 15 13
25 16 76 22 17 3 30 5 30 6 0 1 9 3 19 5 42 8 123 38 154 57 40 25 42 8 3 -25
-17 -14 -27 -28 -24 -31 4 -3 1 -6 -5 -6 -13 0 -192 -176 -192 -190 0 -5 -4
-10 -8 -10 -5 0 -21 -22 -36 -50 -15 -27 -23 -50 -18 -50 5 0 8 -11 7 -24 -2
-15 6 -32 19 -45 54 -51 169 19 259 158 23 36 41 68 39 73 -1 4 2 8 6 8 6 0
34 61 37 80 0 3 3 10 7 16 9 14 32 107 42 171 3 17 58 74 65 68 3 -3 6 -22 7
-41 2 -43 33 -88 63 -92 26 -4 23 -21 -5 -36 -10 -6 -40 -26 -67 -43 -26 -18
-49 -33 -52 -33 -2 0 -20 -16 -40 -36 -47 -47 -52 -88 -15 -125 23 -24 34 -27
71 -24 24 3 68 17 98 32 66 32 191 152 247 238 21 33 42 61 46 63 5 2 8 11 8
21 0 9 4 21 9 27 15 14 62 124 53 124 -4 0 -23 -14 -42 -30 -56 -48 -64 -55
-67 -52 -2 1 -9 -2 -16 -8 -48 -42 -142 -99 -146 -89 -2 7 2 17 10 23 8 6 15
16 16 21 1 6 10 30 19 55 20 58 28 115 27 215 0 67 -8 160 -13 160 -1 0 -3 7
-5 15 -2 8 -10 35 -17 60 l-14 45 -24 -72 c-13 -40 -28 -73 -32 -73 -5 0 -6
-5 -2 -11 3 -6 1 -15 -7 -19 -9 -6 -19 7 -36 48 -13 31 -25 64 -26 72 -1 8 -5
20 -8 25 -5 8 -22 70 -35 128 -1 4 -2 8 -4 10 -12 15 -24 150 -24 287 -1 155
9 256 26 277 6 8 7 13 1 13 -11 0 52 199 67 214 6 6 14 -3 20 -20 6 -16 10
-29 9 -29 -2 0 4 -13 13 -30 20 -37 32 -67 30 -77 -1 -5 3 -8 10 -8 6 0 9 -3
5 -6 -9 -9 68 -148 100 -180 36 -36 110 -46 134 -18 18 21 31 84 17 84 -4 0
-7 3 -6 8 4 14 -14 72 -22 72 -4 0 -10 10 -14 23 -3 13 -17 36 -30 52 -14 16
-22 33 -19 39 4 6 8 6 11 -2 6 -20 70 -14 97 10 13 11 22 24 20 28 -3 5 1 10
8 13 16 6 12 165 -5 183 -4 3 -4 12 -1 20 3 8 1 14 -4 14 -5 0 -10 6 -11 13
-2 27 -9 45 -46 120 -21 42 -43 77 -48 77 -5 0 -7 4 -3 9 3 5 -1 15 -8 23 -7
7 -20 24 -29 38 -24 38 -90 110 -101 110 -5 0 -6 -10 -3 -22 8 -27 16 -73 19
-105 0 -13 4 -23 7 -23 4 0 7 -6 7 -12 1 -14 11 -101 18 -153 3 -16 7 -48 9
-70 3 -22 8 -58 12 -80 4 -22 7 -55 8 -72 0 -18 5 -33 10 -33 5 0 6 -3 3 -7
-4 -3 0 -17 8 -30 28 -43 -8 -26 -66 30 -30 28 -69 63 -87 76 -39 28 -32 41
34 59 32 9 44 18 50 40 4 15 6 32 4 37 -1 6 -3 16 -3 23 0 6 -5 12 -10 12 -6
0 -8 3 -4 6 3 4 -18 31 -48 60 -50 50 -82 114 -56 114 16 0 52 43 47 56 -2 6
0 17 4 25 5 8 4 19 -3 28 -10 12 -9 13 3 6 12 -7 13 -6 4 6 -6 8 -17 30 -24
49 -32 84 -130 195 -254 289 -126 94 -291 169 -211 95 14 -13 23 -24 20 -24
-4 0 0 -6 7 -14 8 -7 34 -44 58 -82 25 -38 50 -75 57 -82 7 -7 13 -18 13 -23
0 -5 16 -34 36 -65 l36 -56 -44 7 c-42 7 -52 9 -100 20 -49 11 -256 44 -307
49 -29 3 -68 8 -85 11 -250 41 -609 37 -953 -11 -136 -18 -167 -23 -290 -48
-62 -13 -113 -20 -113 -17 0 3 18 35 40 71 22 36 43 73 46 83 4 9 10 17 15 17
5 0 9 6 9 14 0 8 3 16 8 18 8 3 52 64 52 72 0 5 8 16 53 68 14 18 23 40 15 37
-2 0 -30 -15 -63 -33z m-228 -2442 c7 -7 14 -29 15 -48 2 -20 7 -36 11 -36 4
0 7 -6 5 -12 -3 -16 31 -118 45 -135 21 -27 -9 -11 -42 22 -38 38 -106 85
-121 85 -6 0 -10 4 -10 9 0 5 -14 14 -31 21 l-30 13 31 15 c37 18 59 48 62 85
2 26 3 26 28 10 14 -9 31 -22 37 -29z"/>
    <path d="M720 2978 c-14 -17 -31 -36 -37 -44 -7 -7 -13 -15 -13 -18 0 -2 -13
-19 -30 -37 -16 -18 -27 -36 -24 -41 3 -4 1 -8 -4 -8 -12 0 -73 -116 -65 -124
4 -3 1 -6 -5 -6 -9 0 -24 -28 -27 -50 0 -3 -4 -11 -8 -17 -5 -7 -6 -13 -2 -13
3 0 1 -9 -5 -20 -6 -11 -13 -33 -15 -48 -1 -15 -6 -44 -10 -64 -4 -20 -4 -42
1 -49 4 -7 8 -25 9 -41 5 -52 63 -90 115 -73 35 11 61 80 75 200 3 28 8 61 10
75 2 14 7 47 9 74 8 72 16 128 23 151 3 11 7 31 9 45 7 61 17 96 27 102 8 5 7
8 -3 8 -12 0 -12 2 -1 9 7 5 9 11 5 14 -5 2 -20 -9 -34 -25z"/>
    <path d="M3539 2448 c-1 -2 -3 -12 -4 -23 -6 -52 -19 -116 -51 -255 -3 -14 -7
-32 -9 -40 -2 -8 -4 -16 -5 -17 -2 -2 -4 -12 -5 -23 -1 -11 -3 -21 -5 -22 -2
-4 -6 -22 -15 -67 -3 -19 -8 -38 -11 -42 -2 -4 -7 -30 -9 -56 -3 -26 -8 -56
-11 -65 -3 -10 -1 -18 5 -18 6 0 8 -6 5 -14 -7 -18 30 -53 62 -59 30 -5 81 25
96 58 6 14 15 25 20 25 5 0 7 4 4 9 -4 5 -2 20 3 33 15 40 22 99 21 173 -1 70
-3 89 -14 155 -12 72 -45 192 -57 206 -5 6 -6 14 -2 17 3 4 1 7 -6 7 -7 0 -9
5 -6 10 3 6 4 10 1 10 -3 0 -7 -1 -7 -2z"/>
    <path d="M417 2401 c-24 -59 -51 -169 -62 -254 -2 -15 -7 -32 -10 -37 -3 -5
-1 -11 5 -15 6 -4 7 -11 4 -17 -7 -12 -6 -109 1 -150 12 -60 15 -71 24 -82 5
-6 10 -15 12 -21 11 -53 57 -84 109 -74 34 7 64 35 54 50 -3 5 -1 9 4 9 5 0 8
10 6 23 -1 12 -3 22 -4 22 -2 0 -11 82 -13 118 -1 15 -5 27 -9 27 -5 0 -8 11
-8 24 0 14 -5 28 -11 31 -5 4 -8 12 -6 18 2 7 0 26 -5 42 -11 36 -19 72 -22
103 -2 12 -6 25 -9 29 -4 3 -7 21 -7 39 0 18 -5 36 -10 39 -8 5 -8 11 0 20 8
9 8 14 0 17 -6 2 -11 20 -12 41 -2 47 -12 47 -31 -2z"/>
    <path d="M3247 1788 c3 -272 4 -288 15 -288 4 0 8 -9 8 -20 0 -11 5 -20 11
-20 5 0 8 -4 5 -9 -8 -13 71 -50 94 -44 22 6 48 42 54 75 3 13 5 24 6 26 1 1
2 18 2 37 0 19 -1 36 -2 38 -1 1 -3 13 -6 27 -2 14 -7 41 -11 60 -3 19 -6 38
-5 43 1 4 -2 7 -8 7 -5 0 -7 7 -4 15 4 8 2 15 -3 15 -5 0 -10 6 -10 14 0 30
-74 163 -131 234 -17 22 -18 17 -15 -210z"/>
    <path d="M705 1983 c-26 -28 -50 -71 -47 -85 1 -5 -3 -8 -8 -8 -9 0 -67 -114
-76 -150 -26 -104 -32 -135 -28 -142 3 -4 2 -8 -3 -8 -11 0 -7 -87 6 -128 5
-18 6 -30 2 -27 -7 4 -92 122 -116 163 -10 16 -19 28 -42 56 -6 7 -10 16 -8
17 2 2 -9 19 -24 38 l-28 34 3 -39 c7 -108 15 -162 35 -242 11 -48 25 -92 30
-98 5 -6 6 -14 2 -17 -3 -4 -1 -7 6 -7 6 0 11 -6 9 -12 -2 -15 30 -80 44 -89
5 -3 9 -9 8 -13 -1 -4 13 -25 31 -47 32 -40 77 -70 112 -76 28 -5 76 25 83 51
7 29 -13 106 -28 106 -6 0 -8 3 -5 6 6 6 -26 60 -43 74 -21 18 -49 69 -40 75
5 3 10 2 10 -4 0 -5 10 -8 23 -5 12 3 27 6 34 8 35 7 66 53 79 119 6 28 12
477 7 477 -1 0 -14 -12 -28 -27z"/>
    <path d="M3625 1720 c-3 -11 -11 -20 -16 -20 -5 0 -9 -5 -9 -11 0 -6 -13 -30
-30 -54 -16 -24 -30 -48 -30 -54 0 -6 -4 -11 -8 -11 -4 0 -15 -12 -24 -27 -9
-16 -25 -37 -36 -49 -17 -18 -32 -39 -87 -122 -5 -8 -17 -23 -25 -33 -35 -41
-40 -49 -40 -64 0 -8 -4 -15 -9 -15 -5 0 -16 -21 -24 -47 -17 -52 -10 -77 23
-88 11 -3 20 -11 20 -16 0 -12 49 -9 68 4 6 5 12 6 12 3 0 -4 11 5 25 19 14
14 30 25 35 25 6 0 10 5 10 11 0 6 11 25 25 43 14 18 25 38 25 44 0 7 5 12 10
12 6 0 9 3 8 8 0 4 6 23 15 43 9 19 19 47 22 62 4 15 10 27 14 27 3 0 6 10 7
23 0 12 4 34 7 50 16 63 18 80 31 215 3 37 -9 52 -19 22z"/>
  </g>
</svg>
